<svg xmlns="http://www.w3.org/2000/svg" viewBox="0 0 1920 1080" role="img" aria-label="Text-free luxury car engine background">
  <defs>
    <radialGradient id="goldGlow" cx="50%" cy="42%" r="58%">
      <stop offset="0%" stop-color="#f3d27a" stop-opacity="0.36" />
      <stop offset="38%" stop-color="#b98425" stop-opacity="0.18" />
      <stop offset="100%" stop-color="#050505" stop-opacity="0" />
    </radialGradient>
    <linearGradient id="darkBody" x1="0" x2="1" y1="0" y2="1">
      <stop offset="0%" stop-color="#17120a" />
      <stop offset="42%" stop-color="#060606" />
      <stop offset="100%" stop-color="#111111" />
    </linearGradient>
    <linearGradient id="goldStroke" x1="0" x2="1" y1="0" y2="0">
      <stop offset="0%" stop-color="#7f5b1d" stop-opacity="0.32" />
      <stop offset="48%" stop-color="#f3d27a" stop-opacity="0.9" />
      <stop offset="100%" stop-color="#7f5b1d" stop-opacity="0.32" />
    </linearGradient>
    <filter id="softShadow" x="-20%" y="-20%" width="140%" height="140%">
      <feDropShadow dx="0" dy="18" stdDeviation="28" flood-color="#000000" flood-opacity="0.7" />
    </filter>
    <filter id="blurGlow" x="-30%" y="-30%" width="160%" height="160%">
      <feGaussianBlur stdDeviation="18" />
    </filter>
    <pattern id="mesh" width="42" height="42" patternUnits="userSpaceOnUse" patternTransform="rotate(28)">
      <path d="M0 0h42M0 21h42" stroke="#d6aa45" stroke-opacity="0.055" stroke-width="1" />
    </pattern>
  </defs>

  <rect width="1920" height="1080" fill="#050505" />
  <rect width="1920" height="1080" fill="url(#mesh)" opacity="0.72" />
  <rect width="1920" height="1080" fill="url(#goldGlow)" />
  <path d="M0 720C280 620 420 710 650 650c230-60 350-250 610-210 260 40 390 230 660 120v520H0Z" fill="#020202" opacity="0.78" />

  <g filter="url(#softShadow)" opacity="0.98">
    <ellipse cx="960" cy="545" rx="560" ry="235" fill="url(#darkBody)" stroke="url(#goldStroke)" stroke-width="4" />
    <path d="M505 555c72-145 204-232 378-260 74-12 148-11 222 3 164 30 282 117 354 257" fill="none" stroke="#d6aa45" stroke-opacity="0.42" stroke-width="9" stroke-linecap="round" />
    <path d="M620 615c97 70 214 105 351 105 139 0 258-35 357-105" fill="none" stroke="#f4d98d" stroke-opacity="0.24" stroke-width="5" stroke-linecap="round" />

    <g fill="#090909" stroke="url(#goldStroke)" stroke-width="3">
      <rect x="648" y="420" width="154" height="250" rx="35" />
      <rect x="832" y="380" width="256" height="312" rx="42" />
      <rect x="1118" y="420" width="154" height="250" rx="35" />
    </g>

    <g fill="none" stroke="#f4d98d" stroke-linecap="round">
      <path d="M690 466h70M690 525h70M690 584h70" stroke-opacity="0.46" stroke-width="5" />
      <path d="M1160 466h70M1160 525h70M1160 584h70" stroke-opacity="0.46" stroke-width="5" />
      <path d="M886 452h148M886 515h148M886 578h148" stroke-opacity="0.34" stroke-width="6" />
    </g>

    <g fill="none" stroke="#d6aa45" stroke-opacity="0.36" stroke-linecap="round" stroke-width="10">
      <path d="M540 485c-82-22-152-18-210 13" />
      <path d="M1380 485c82-22 152-18 210 13" />
      <path d="M558 622c-116 26-213 76-292 150" />
      <path d="M1362 622c116 26 213 76 292 150" />
    </g>

    <g fill="#080808" stroke="#f4d98d" stroke-opacity="0.46" stroke-width="4">
      <circle cx="520" cy="492" r="34" />
      <circle cx="1400" cy="492" r="34" />
      <circle cx="960" cy="382" r="42" />
      <circle cx="960" cy="690" r="42" />
    </g>
  </g>

  <g opacity="0.32" filter="url(#blurGlow)">
    <path d="M260 850c345-160 574-168 839-42 171 81 327 93 561 8" fill="none" stroke="#d6aa45" stroke-width="22" stroke-linecap="round" />
    <path d="M410 270c170-86 348-116 532-91 198 27 344 102 568 58" fill="none" stroke="#f4d98d" stroke-width="14" stroke-linecap="round" />
  </g>

  <rect width="1920" height="1080" fill="url(#goldGlow)" opacity="0.35" />
  <rect width="1920" height="1080" fill="#000000" opacity="0.18" />
</svg>
